<?xml version="1.0" encoding="utf-8"?>
<!-- Generator: Adobe Illustrator 27.5.0, SVG Export Plug-In . SVG Version: 6.00 Build 0)  -->
<svg version="1.1" id="Capa_1" xmlns="http://www.w3.org/2000/svg" xmlns:xlink="http://www.w3.org/1999/xlink" x="0px" y="0px"
	 viewBox="0 0 2122 2122" style="enable-background:new 0 0 2122 2122;" xml:space="preserve">
<g>
	<path style="fill:#6AC0AE;" d="M1359.418,1155.83c-51.768-3.941-103.681-5.977-155.608-6.134
		c-8.417-0.026-16.834,0.033-25.251,0.106c-22.729,0.198-45.458,0.72-68.173,1.634c-23.062-0.928-46.14-1.449-69.222-1.638
		c-11.365-0.093-22.732-0.086-34.098,0c-48.614,0.372-97.221,2.343-145.711,6.033c-14.996,1.125-30.095,2.456-45.057,4.534
		c4.125,17.313,9.883,34.183,16.494,49.52c4.636,10.667,10.602,21.13,17.995,30.402c7.907,9.883,17.384,18.437,28.46,24.436
		c21.335,11.552,46.044,6.475,68.843,3.951c25.698-2.862,51.666-4.088,77.501-5.179c52.655-2.18,105.413-1.876,158.036,1.023
		c46.317,2.589,95.121,12.506,141.267,3.51c30.809-6,42.636-29.788,51.836-56.95c5.83-17.211,10.94-34.662,15.303-52.282
		C1381.162,1157.569,1370.255,1156.649,1359.418,1155.83z M959.63,1206.376c8.755-4.943,17.289-10.266,25.42-16.19
		c3.588-2.614,12.504-10.87,16.697-4.37c4.151,6.436-6.721,12.056-10.736,14.567c-8.526,5.335-17.301,10.207-26.329,14.636
		C958.951,1217.833,953.964,1209.572,959.63,1206.376z M1058.487,1191.604c-23.968,22.402-59.062,40.624-89.376,52.76
		c-5.018,2.01-6.931-5.315-3.364-7.98c25.715-19.203,59.71-39.547,90.772-48.161
		C1058.426,1187.694,1059.983,1190.206,1058.487,1191.604z"/>
	<g>
		<path style="fill:#1F193D;" d="M678.161,894.113c49.922,2.409,98.168-13.864,145.651-26.916
			c44.319-12.183,91.182-22.343,136.629-10.005c74.53,20.235,134.145,90.96,140.789,168.068h17.032
			c-5.421-67.972-48.54-131.674-107.534-165.43c-37.459-21.434-79.496-28.711-122.183-23.641
			c-49.03,5.822-95.259,23.878-143.305,34.265c-43.934,9.501-87.993,9.566-130.005-7.78c-37.883-15.645-71.257-42.945-95.24-76.071
			c-54.943-75.893-55.9-176.855-20.882-261.356c23.512-56.741,63.151-104.644,110.564-143.153l53.061,59.002
			c15.04,16.726,41.03,18.102,57.756,3.062l109.342-98.334c16.726-15.04,18.105-41.03,3.062-57.757l-2.335-2.597l-128.89-143.322
			l-2.336-2.597c-15.04-16.726-41.033-18.102-57.756-3.062l-109.345,98.331c-16.724,15.042-18.102,41.033-3.06,57.758l69.086,76.821
			c-38.443,31.325-71.827,68.586-96.459,111.871c-46.852,82.331-60.253,187.447-19.486,274.931
			C517.516,831.738,593.638,890.035,678.161,894.113z M646.698,163.257l1.145-1.028c6.514-5.856,16.633-5.32,22.49,1.191
			l135.766,150.967c5.856,6.512,5.32,16.633-1.194,22.49l-1.145,1.028c-6.512,5.859-16.633,5.323-22.49-1.191L645.506,185.749
			C639.65,179.235,640.186,169.116,646.698,163.257z M606.047,199.815l1.145-1.028c6.512-5.856,16.633-5.32,22.489,1.191
			l135.764,150.967c5.859,6.511,5.32,16.633-1.191,22.49l-1.145,1.028c-6.512,5.859-16.633,5.323-22.49-1.191L604.856,222.307
			C598.997,215.792,599.535,205.673,606.047,199.815z"/>
		<path style="fill:#1F193D;" d="M839.818,1390.744c-47.086,0.003-85.253,38.167-85.255,85.256
			c0.003,47.089,38.169,85.255,85.255,85.258c47.089-0.003,85.255-38.17,85.259-85.258
			C925.073,1428.912,886.906,1390.748,839.818,1390.744z M892.874,1529.057c-13.595,13.586-32.32,21.975-53.057,21.977
			c-20.734-0.002-39.46-8.391-53.054-21.977c-13.586-13.595-21.975-32.321-21.977-53.057c0.002-20.736,8.391-39.461,21.977-53.055
			c13.594-13.586,32.319-21.974,53.054-21.976c20.736,0.002,39.462,8.39,53.057,21.976c13.586,13.594,21.974,32.319,21.977,53.055
			C914.849,1496.736,906.461,1515.463,892.874,1529.057z"/>
		<path style="fill:#1F193D;" d="M1374.957,1390.744c-47.086,0.003-85.253,38.167-85.256,85.256
			c0.003,47.089,38.169,85.255,85.256,85.258c47.089-0.003,85.255-38.17,85.258-85.258
			C1460.212,1428.912,1422.045,1390.748,1374.957,1390.744z M1428.014,1529.057c-13.595,13.586-32.321,21.975-53.057,21.977
			c-20.734-0.002-39.46-8.391-53.054-21.977c-13.587-13.595-21.975-32.321-21.977-53.057c0.002-20.736,8.391-39.461,21.977-53.055
			c13.594-13.586,32.319-21.974,53.054-21.976c20.736,0.002,39.462,8.39,53.057,21.976c13.586,13.594,21.974,32.319,21.977,53.055
			C1449.988,1496.736,1441.6,1515.463,1428.014,1529.057z"/>
		<path style="fill:#1F193D;" d="M704.729,1633.084c-2.629-0.444-5.652,0.721-6.387,3.81
			c-12.974,54.385-31.88,117.423-73.724,172.616c-41.303,54.485-96.282,92.46-158.999,109.822c-3.525,0.977-4.604,4.271-3.849,7.021
			c0.633,2.312,2.582,4.292,5.288,4.292c0.512,0,1.05-0.07,1.613-0.224c125.376-34.071,226.484-156.886,240.416-292.031
			C709.406,1635.293,707.129,1633.494,704.729,1633.084z"/>
		<path style="fill:#1F193D;" d="M1754.406,1919.332c-62.84-17.396-117.82-55.371-158.999-109.82
			c-41.892-55.391-60.777-118.343-73.724-172.618c-0.736-3.089-3.778-4.236-6.421-3.805c-2.383,0.407-4.643,2.202-4.324,5.301
			c13.932,135.147,115.04,257.963,240.417,292.031c0.56,0.154,1.099,0.224,1.61,0.224c2.707,0,4.658-1.983,5.293-4.3
			C1759.01,1923.6,1757.928,1920.309,1754.406,1919.332z"/>
		<path style="fill:#1F193D;" d="M556.366,1749.428c0.056,0,0.115,0,0.173-0.003c8.901-0.265,17.223-2.658,25.269-4.969l1.739-0.49
			c6.509-1.82,13.886-3.881,16.958-10.217c0.94-1.937,0.363-4.097-1.374-5.143c-6.168-3.712-13.42-1.41-19.807,0.622l-2.132,0.669
			c-8.253,2.568-16.049,4.992-23.396,9.518c-2.436,1.498-2.904,4.256-2.285,6.327
			C552.196,1748.029,554.045,1749.428,556.366,1749.428z"/>
		<path style="fill:#1F193D;" d="M532.171,1781.41c-2.775,0.4-4.597,2.261-4.875,4.974c-0.309,3.018,1.384,6.87,4.753,8.093
			c3.535,1.279,7.652,1.902,11.973,1.902c13.264,0,28.404-5.864,34.163-16.499c0.738-1.364,0.612-3.272-0.312-4.641
			c-0.789-1.172-2.024-1.769-3.364-1.606c-4.548,0.504-8.921,1.876-13.149,3.201c-2.259,0.706-4.592,1.44-6.921,2.03
			c-4.456,1.128-8.999,1.43-13.391,1.722C538.152,1780.78,535.158,1780.979,532.171,1781.41z"/>
		<path style="fill:#1F193D;" d="M1682.148,1815.569c3.907,1.827,8.08,2.619,12.285,2.619c10.468,0,21.106-4.914,28.193-10.977
			c1.245-1.065,1.585-2.933,0.853-4.65c-0.714-1.674-2.181-2.626-3.825-2.49c-6.426,0.648-12.75,1.384-18.09,2.017
			c-1.805,0.214-3.671,0.343-5.474,0.465c-4.19,0.29-8.524,0.587-12.589,1.981c-2.383,0.816-4.212,3.34-4.356,6.002
			C1679.025,1812.787,1680.119,1814.621,1682.148,1815.569z"/>
		<path style="fill:#1F193D;" d="M1670.93,1774.792c0.59,0,1.216-0.078,1.876-0.246l1.754-0.446
			c10.275-2.602,19.978-5.057,28.955-11.255c1.61-1.113,2.329-3.096,1.788-4.935c-0.521-1.774-2.036-2.914-3.959-2.977
			c-10.95-0.329-20.519,2.848-30.619,6.236l-1.491,0.499c-4.085,1.366-5.286,5.262-4.363,8.402
			C1665.595,1772.526,1667.734,1774.792,1670.93,1774.792z"/>
		<path style="fill:#1F193D;" d="M1131.408,1322.934h-62.399c-22.926,0-41.578,18.65-41.578,41.576
			c0,22.926,18.653,41.576,41.578,41.576h62.399c22.926,0,41.579-18.65,41.579-41.576
			C1172.987,1341.584,1154.334,1322.934,1131.408,1322.934z M1131.408,1396.424h-62.399c-17.554,0-31.917-14.36-31.917-31.914
			c0-17.554,14.363-31.915,31.917-31.915h62.399c17.554,0,31.917,14.36,31.917,31.915
			C1163.325,1382.064,1148.962,1396.424,1131.408,1396.424z"/>
		<path style="fill:#1F193D;" d="M697.75,1252.459h-30.972v-30.967c0-28.774-23.408-52.185-52.18-52.185h-12.117
			c-28.775,0-52.183,23.411-52.183,52.185v30.967h-30.967c-28.777,0-52.185,23.408-52.185,52.183v12.119
			c0,28.774,23.408,52.182,52.185,52.182h30.967v30.969c0,28.772,23.408,52.183,52.183,52.183h12.117
			c28.772,0,52.18-23.411,52.18-52.183v-30.969h30.972c28.775,0,52.182-23.408,52.182-52.182v-12.119
			C749.932,1275.867,726.525,1252.459,697.75,1252.459z M730.61,1316.761c0,18.073-14.787,32.86-32.86,32.86h-50.292v50.292
			c0,18.073-14.787,32.86-32.86,32.86h-12.117c-18.076,0-32.862-14.787-32.862-32.86v-50.292h-50.29
			c-18.076,0-32.862-14.787-32.862-32.86v-12.117c0-18.075,14.786-32.862,32.862-32.862h50.29v-50.292
			c0-18.073,14.786-32.86,32.862-32.86h12.117c18.073,0,32.86,14.787,32.86,32.86v50.292h50.292c18.073,0,32.86,14.787,32.86,32.862
			V1316.761z"/>
		<path style="fill:#1F193D;" d="M1059.355,1188.941c-0.626-1.115-1.829-1.651-3.001-1.32c-26.641,7.388-59.8,24.979-90.979,48.263
			c-2.383,1.779-2.56,5.189-1.362,7.328c0.775,1.378,2.025,2.112,3.466,2.112c0.595,0,1.223-0.124,1.864-0.38
			c21.552-8.629,61.849-26.974,89.571-52.884C1059.786,1191.243,1059.958,1190.018,1059.355,1188.941z"/>
		<path style="fill:#1F193D;" d="M991.342,1200.912c0.373-0.234,0.806-0.494,1.282-0.779c3.557-2.141,9.513-5.727,10.523-10.083
			c0.366-1.567,0.068-3.106-0.877-4.573c-0.962-1.491-2.232-2.38-3.774-2.643c-4.112-0.687-9.057,3.167-12.338,5.722
			c-0.556,0.431-1.053,0.818-1.476,1.125c-7.525,5.484-15.82,10.765-25.359,16.151c-3.128,1.764-3.299,4.948-2.132,7.159
			c0.965,1.835,2.862,3.235,5.108,3.235c0.848,0,1.744-0.2,2.658-0.648C974.003,1211.141,982.88,1206.208,991.342,1200.912z"/>
		<path style="fill:#1F193D;" d="M702.356,1454.168c0.896-2.675-0.828-4.789-2.814-5.622c-1.954-0.816-4.65-0.565-5.926,1.942
			c-23.761,46.859-15.347,105.946,20.462,143.685c1.216,1.279,2.697,1.817,4.178,1.817c1.674,0,3.344-0.687,4.629-1.764
			c2.141-1.802,3.337-4.919,1.181-7.825C694.295,1546.31,686.787,1500.585,702.356,1454.168z"/>
		<path style="fill:#1F193D;" d="M1541.415,1522.183c3.466-23.732,3.215-68.636-19.72-86.395c-1.837-1.425-4.519-1.688-6.531-0.646
			c-1.664,0.865-2.565,2.497-2.473,4.48c0.368,7.913,2.877,14.327,5.532,21.118c1.476,3.774,3.004,7.676,4.183,11.949
			c4.67,16.899,5.525,35.192,2.47,52.899c-2.772,16.053-10.007,29.154-17.006,41.825c-4.494,8.141-9.145,16.558-12.667,25.788
			c-0.405,1.06-0.161,2.1,0.665,2.855c0.621,0.568,1.469,0.87,2.297,0.87c0.466,0,0.926-0.095,1.335-0.295
			C1525.875,1583.788,1538.258,1543.793,1541.415,1522.183z"/>
		<path style="fill:#1F193D;" d="M1620.837,1282.171c28.027,0,50.828-22.801,50.828-50.828c0-28.027-22.801-50.831-50.828-50.831
			s-50.833,22.804-50.833,50.831C1570.004,1259.37,1592.811,1282.171,1620.837,1282.171z M1620.837,1190.174
			c22.735,0,41.17,18.431,41.17,41.17c0,22.735-18.434,41.169-41.17,41.169c-22.738,0-41.169-18.433-41.169-41.169
			C1579.668,1208.605,1598.099,1190.174,1620.837,1190.174z"/>
		<path style="fill:#1F193D;" d="M1536.66,1364.51c28.026,0,50.83-22.802,50.83-50.831c0-28.027-22.804-50.828-50.83-50.828
			c-28.027,0-50.831,22.801-50.831,50.828C1485.829,1341.708,1508.633,1364.51,1536.66,1364.51z M1536.66,1272.512
			c22.738,0,41.169,18.431,41.169,41.169c0,22.735-18.431,41.167-41.169,41.167c-22.736,0-41.17-18.431-41.17-41.167
			C1495.49,1290.943,1513.924,1272.512,1536.66,1272.512z"/>
		<path style="fill:#1F193D;" d="M1655.607,1313.679c0,28.029,22.806,50.831,50.833,50.831s50.833-22.802,50.833-50.831
			c0-28.027-22.806-50.828-50.833-50.828S1655.607,1285.652,1655.607,1313.679z M1706.44,1272.512
			c22.738,0,41.17,18.431,41.17,41.169c0,22.735-18.432,41.167-41.17,41.167s-41.169-18.431-41.169-41.167
			C1665.271,1290.943,1683.702,1272.512,1706.44,1272.512z"/>
		<path style="fill:#1F193D;" d="M1624.102,1342.648c-28.027,0-50.833,22.801-50.833,50.828c0,28.027,22.806,50.828,50.833,50.828
			c28.027,0,50.831-22.801,50.831-50.828C1674.932,1365.45,1652.129,1342.648,1624.102,1342.648z M1624.102,1434.646
			c-22.735,0-41.169-18.432-41.169-41.17c0-22.738,18.433-41.169,41.169-41.169c22.738,0,41.17,18.431,41.17,41.169
			C1665.271,1416.215,1646.84,1434.646,1624.102,1434.646z"/>
	</g>
	<g>
		<path style="fill:#FFD004;" d="M690.069,1028.164c-41.756-19.549-92.411-21.435-135.498-5.023
			c-43.089,16.407-79.666,51.498-97.839,93.871c-3.934,9.172-9.048,26.068,0.889,36.163c2.022,2.053,4.629,3.618,7.749,4.643
			c0.063,0.021,0.129,0.031,0.195,0.031c0.224,0,0.436-0.119,0.548-0.324c38.969-71.342,120.019-133.428,205.905-101.14
			c21.442,8.066,40.511,20.368,56.677,36.563c0.156,0.159,0.385,0.222,0.597,0.163c0.215-0.056,0.383-0.219,0.444-0.433
			C738.266,1062.807,714.839,1039.767,690.069,1028.164z"/>
		<path style="fill:#FFD004;" d="M1756.557,1117.012c-18.175-42.373-54.753-77.464-97.839-93.871
			c-43.086-16.411-93.742-14.531-135.498,5.023c-25.717,12.043-49.476,35.929-39.026,66.845c0.4,1.181,0.882,2.212,1.348,3.206
			l0.114,0.243c0.088,0.19,0.266,0.322,0.472,0.353c0.19,0.029,0.414-0.044,0.553-0.197c17.286-19.021,38.182-33.23,62.107-42.229
			c84.317-31.688,164.95,28.621,204.202,98.063c0.09,0.158,0.243,0.27,0.422,0.304c0.042,0.007,0.08,0.012,0.122,0.012
			c0.139,0,0.273-0.046,0.385-0.134l0.348-0.268c0.471-0.363,0.957-0.736,1.401-1.189
			C1765.605,1143.08,1760.491,1126.183,1756.557,1117.012z"/>
		<path style="fill:#FFD004;" d="M989.318,1120.564l-187.761,13.953c-8.884,0.661-15.574,8.424-14.914,17.308l1.014,13.646
			c0.012,0.181,0.105,0.346,0.251,0.455c0.107,0.081,0.238,0.122,0.37,0.122c0.046,0,0.092-0.005,0.136-0.015
			c8.865-1.998,18.015-3.649,27.969-5.052c15.888-2.207,31.671-3.53,45.018-4.531c47.669-3.627,96.677-5.656,145.669-6.029
			c0.173-0.002,0.336-0.073,0.453-0.202c0.117-0.127,0.178-0.295,0.163-0.467l-1.06-14.276
			C1005.966,1126.593,998.18,1119.842,989.318,1120.564z"/>
		<path style="fill:#FFD004;" d="M1391.963,1159.414c11.065,1.267,21.092,2.77,30.653,4.594c0.039,0.01,0.078,0.012,0.117,0.012
			c0.139,0,0.273-0.046,0.385-0.131c0.141-0.112,0.229-0.278,0.238-0.458l1.133-20.892c0.234-4.309-1.226-8.453-4.108-11.666
			c-2.882-3.211-6.84-5.109-11.15-5.342l-188.004-10.19c-4.297-0.209-8.451,1.225-11.664,4.107c-3.211,2.882-5.111,6.84-5.345,11.15
			l-1.033,19.065c-0.007,0.171,0.054,0.339,0.171,0.463c0.117,0.124,0.28,0.195,0.451,0.195
			c51.824,0.156,104.163,2.219,155.563,6.131C1368.273,1157.124,1380.022,1158.069,1391.963,1159.414z"/>
		<path style="fill:#FFD004;" d="M839.818,1376.526c-54.938,0-99.473,44.536-99.473,99.474c0,54.94,44.536,99.476,99.473,99.476
			c54.941,0,99.476-44.536,99.476-99.476C939.294,1421.063,894.758,1376.526,839.818,1376.526z M839.818,1561.258
			c-47.086-0.003-85.253-38.17-85.255-85.258c0.003-47.089,38.169-85.253,85.255-85.256c47.088,0.003,85.255,38.168,85.259,85.256
			C925.073,1523.089,886.906,1561.255,839.818,1561.258z"/>
		<path style="fill:#FFD004;" d="M839.818,1400.344c-20.205,0.005-39.203,7.876-53.495,22.161
			c-14.285,14.292-22.156,33.291-22.161,53.495c0.005,20.202,7.876,39.201,22.161,53.498c14.295,14.287,33.293,22.156,53.495,22.158
			c20.203-0.002,39.201-7.871,53.498-22.158c14.288-14.297,22.156-33.296,22.158-53.498c-0.003-20.202-7.871-39.201-22.158-53.495
			C879.019,1408.22,860.02,1400.349,839.818,1400.344z"/>
		<path style="fill:#FFD004;" d="M1374.957,1400.344c-20.202,0.005-39.198,7.876-53.495,22.161
			c-14.29,14.297-22.158,33.296-22.158,53.495s7.868,39.199,22.158,53.498c14.297,14.287,33.296,22.156,53.495,22.158
			c20.202-0.002,39.201-7.871,53.498-22.158c14.287-14.297,22.156-33.296,22.158-53.498c-0.002-20.202-7.871-39.201-22.158-53.495
			C1414.158,1408.22,1395.159,1400.349,1374.957,1400.344z"/>
		<path style="fill:#FFD004;" d="M1374.957,1376.526c-54.938,0-99.473,44.536-99.473,99.474c0,54.94,44.536,99.476,99.473,99.476
			c54.94,0,99.476-44.536,99.476-99.476C1474.433,1421.063,1429.897,1376.526,1374.957,1376.526z M1374.957,1561.258
			c-47.087-0.003-85.253-38.17-85.256-85.258c0.003-47.089,38.17-85.253,85.256-85.256c47.088,0.003,85.255,38.168,85.258,85.256
			C1460.212,1523.089,1422.045,1561.255,1374.957,1561.258z"/>
		<path style="fill:#FFD004;" d="M1131.408,1331.971h-62.399c-17.944,0-32.54,14.597-32.54,32.538
			c0,17.941,14.597,32.538,32.54,32.538h62.399c17.944,0,32.541-14.597,32.541-32.538
			C1163.949,1346.568,1149.352,1331.971,1131.408,1331.971z"/>
		<path style="fill:#FFD004;" d="M697.75,1271.158h-49.669v-49.668c0-18.463-15.02-33.484-33.483-33.484h-12.117
			c-18.466,0-33.486,15.021-33.486,33.484v49.668h-49.666c-18.466,0-33.486,15.021-33.486,33.486v12.117
			c0,18.462,15.021,33.483,33.486,33.483h49.666v49.668c0,18.463,15.02,33.484,33.486,33.484h12.117
			c18.463,0,33.483-15.021,33.483-33.484v-49.668h49.669c18.463,0,33.483-15.021,33.483-33.483v-12.117
			C731.233,1286.179,716.213,1271.158,697.75,1271.158z"/>
		
			<ellipse transform="matrix(0.7071 -0.7071 0.7071 0.7071 -395.9587 1506.7572)" style="fill:#FFD004;" cx="1620.838" cy="1231.343" rx="41.793" ry="41.793"/>
		<path style="fill:#FFD004;" d="M1536.66,1271.889c-23.045,0-41.793,18.748-41.793,41.793c0,23.042,18.748,41.79,41.793,41.79
			c23.045,0,41.793-18.748,41.793-41.79C1578.453,1290.636,1559.705,1271.889,1536.66,1271.889z"/>
		<path style="fill:#FFD004;" d="M1706.44,1271.889c-23.045,0-41.793,18.748-41.793,41.793c0,23.042,18.748,41.79,41.793,41.79
			c23.045,0,41.793-18.748,41.793-41.79C1748.233,1290.636,1729.485,1271.889,1706.44,1271.889z"/>
		
			<ellipse transform="matrix(0.9731 -0.2306 0.2306 0.9731 -277.5426 412.0326)" style="fill:#FFD004;" cx="1624.102" cy="1393.477" rx="41.793" ry="41.793"/>
	</g>
	<g>
		<path style="fill:#BC146D;" d="M1183.7,1060.222h-25.374l-8.18-35.103c-0.066-0.282-0.317-0.482-0.607-0.482h-85.403
			c-0.299,0-0.558,0.214-0.614,0.512l-6.471,35.074h-27.442c-0.343,0-0.624,0.28-0.624,0.624v21.35c0,0.344,0.28,0.624,0.624,0.624
			h23.273l-4.024,21.823h-19.249c-0.343,0-0.624,0.28-0.624,0.624v21.349c0,0.343,0.28,0.624,0.624,0.624h15.08l-4.142,22.446
			c-0.031,0.18,0.015,0.368,0.134,0.509c0.117,0.142,0.29,0.224,0.475,0.227c23.756,0.195,47.038,0.748,69.252,1.64
			c21.856-0.88,44.786-1.43,68.153-1.635c0.19-0.003,0.368-0.09,0.485-0.239c0.117-0.149,0.161-0.341,0.117-0.526l-5.225-22.421
			h9.761c0.343,0,0.624-0.28,0.624-0.624v-21.349c0-0.344-0.28-0.624-0.624-0.624h-15.026l-5.083-21.823h20.109
			c0.343,0,0.624-0.28,0.624-0.624v-21.35C1184.324,1060.503,1184.044,1060.222,1183.7,1060.222z"/>
		<path style="fill:#BC146D;" d="M670.795,163.004c-6.102-6.785-16.584-7.34-23.369-1.238l-1.145,1.028
			c-6.782,6.102-7.337,16.587-1.238,23.371L780.807,337.13c2.943,3.274,7.001,5.208,11.43,5.442
			c0.302,0.015,0.602,0.024,0.902,0.024c4.097,0,7.988-1.483,11.038-4.229l1.145-1.028c3.274-2.943,5.208-7.001,5.442-11.43
			c0.234-4.426-1.257-8.665-4.202-11.939L670.795,163.004z"/>
		<path style="fill:#BC146D;" d="M630.144,199.561c-6.1-6.789-16.584-7.347-23.369-1.237l-1.145,1.028
			c-6.784,6.103-7.34,16.587-1.237,23.372l135.763,150.965c2.943,3.274,7.001,5.208,11.43,5.442
			c0.302,0.014,0.602,0.024,0.901,0.024c4.097,0,7.987-1.484,11.038-4.229l1.144-1.028c3.274-2.943,5.206-7.001,5.44-11.43
			c0.236-4.426-1.257-8.668-4.202-11.939L630.144,199.561z"/>
		<path style="fill:#BC146D;" d="M444.281,1944.397c-6.363-3.306-13.364-5.284-20.136-7.199c-5.308-1.498-10.797-3.05-15.932-5.228
			c-30.945-13.206-45.917-48.473-47.028-77.564c-1.24-32.492,10.495-63.623,23.362-92.424c2.365-5.303,4.792-10.592,7.223-15.886
			c10.867-23.668,22.102-48.146,27.479-74.012c5.247-25.047,4.882-51.481-1.062-76.443c-4.541-19.228-12.051-34.833-22.327-46.382
			c-0.158-0.18-0.404-0.259-0.626-0.188c-0.229,0.061-0.402,0.244-0.451,0.475c-12.787,61.976-30.787,122.305-51.279,189.096
			c-17.895,58.329-32.059,114.782-9.135,164.275c18.57,40.056,56.609,62.037,106.019,62.037c6.595,0,13.396-0.392,20.375-1.186
			c0.188-0.02,0.356-0.127,0.458-0.287c0.1-0.161,0.122-0.358,0.061-0.536C458.7,1955.529,452.344,1948.597,444.281,1944.397z"/>
		<path style="fill:#BC146D;" d="M1877.293,1738.643c-2.889-9.42-5.766-18.855-8.629-28.292c-1.272-4.2-2.538-8.404-3.802-12.612
			c-0.986-3.284-1.968-6.57-2.945-9.861c-1.584-5.328-3.155-10.66-4.711-15.998c-0.585-2.002-1.167-4.002-1.747-6.007
			c-2.003-6.926-3.986-13.859-5.922-20.804l-0.426-1.547c-1.859-6.679-3.727-13.552-5.557-20.424l-0.904-3.396
			c-2.09-7.912-3.949-15.162-5.686-22.158l-0.227-0.935c-1.676-6.772-3.383-13.936-5.079-21.296l-0.675-2.936
			c-1.686-7.396-3.296-14.789-4.785-21.976l-0.185-0.853c-0.049-0.232-0.221-0.417-0.45-0.477c-0.232-0.061-0.471,0.01-0.626,0.188
			c-10.271,11.545-17.783,27.152-22.326,46.382c-5.942,24.957-6.31,51.391-1.062,76.443c5.376,25.866,16.612,50.344,27.479,74.012
			c2.431,5.293,4.857,10.582,7.223,15.886c12.867,28.801,24.601,59.932,23.362,92.424c-1.111,29.094-16.083,64.358-47.028,77.561
			c-5.135,2.18-10.624,3.732-15.932,5.23c-6.77,1.915-13.773,3.893-20.134,7.199c-8.054,4.192-14.404,11.116-16.955,18.439
			c-0.024,0.046-0.051,0.114-0.063,0.163c-0.044,0.173-0.01,0.358,0.09,0.504c0.102,0.149,0.263,0.246,0.441,0.265
			c0.139,0.017,0.28,0.027,0.419,0.036l0.324,0.027c3.162,0.348,6.007,0.594,8.704,0.76c0.211,0.012,0.421,0.017,0.633,0.024
			l0.524,0.02c2.482,0.134,5.016,0.217,7.527,0.244c0.212,0.002,0.424,0.002,0.636,0.002c0.516,0,1.028-0.004,1.542-0.009
			l0.787-0.008c1.995-0.015,3.944-0.063,5.793-0.146c1.05-0.044,2.1-0.095,3.15-0.163c1.805-0.112,3.71-0.275,5.995-0.511
			l0.933-0.09c0.553-0.051,1.108-0.105,1.659-0.171c2.853-0.348,5.625-0.765,8.243-1.24c0.393-0.073,0.78-0.156,1.165-0.239
			l0.826-0.175c2.319-0.46,4.36-0.911,6.243-1.381c0.775-0.19,1.547-0.402,2.317-0.614l0.575-0.156
			c1.807-0.497,3.596-1.03,5.311-1.583l0.273-0.09c0.857-0.275,1.715-0.553,2.565-0.85c1.829-0.643,3.732-1.371,5.815-2.234
			c0.268-0.11,0.541-0.216,0.811-0.321c0.378-0.149,0.755-0.295,1.125-0.456c2.449-1.064,4.924-2.25,7.362-3.534
			c0.4-0.212,0.794-0.439,1.186-0.665l0.758-0.434c1.929-1.069,3.644-2.08,5.24-3.094c0.809-0.514,1.605-1.047,2.402-1.586
			c1.513-1.018,3.077-2.141,4.648-3.335l0.526-0.4c0.555-0.422,1.111-0.843,1.659-1.281c1.851-1.491,3.686-3.084,5.452-4.736
			c0.127-0.12,0.259-0.234,0.39-0.346c0.168-0.146,0.336-0.292,0.499-0.448c1.959-1.873,3.888-3.901,5.902-6.195
			c0.327-0.368,0.639-0.753,0.953-1.14l0.562-0.687c1.425-1.701,2.772-3.413,4.008-5.096c0.567-0.777,1.123-1.567,1.678-2.368
			c1.201-1.74,2.402-3.606,3.569-5.547l0.456-0.746c0.302-0.49,0.602-0.981,0.89-1.486c1.683-2.95,3.111-5.7,4.365-8.402
			C1909.354,1853.42,1895.188,1796.967,1877.293,1738.643z"/>
	</g>
	<g>
		<path style="fill:#322780;" d="M830.1,285.887c0.11,0.124,0.265,0.198,0.428,0.207h0.034c0.153,0,0.302-0.056,0.417-0.161
			l23.785-21.391c0.124-0.11,0.198-0.266,0.207-0.429c0.008-0.166-0.048-0.329-0.161-0.451L725.92,120.343
			c-0.231-0.258-0.624-0.28-0.88-0.046l-23.783,21.389c-0.256,0.229-0.278,0.624-0.046,0.88L830.1,285.887z"/>
		<path style="fill:#322780;" d="M1836.82,1761.729c-13.086-29.344-28.117-58.28-34.66-89.771
			c-5.247-25.05-4.874-51.26,1.058-76.173c3.953-16.733,10.906-33.432,22.185-46.112c0.059,0.285,0.127,0.568,0.186,0.853
			c-4.176-20.18-7.792-40.47-10.639-60.904c-14.212-102.005-9.883-208.236-46.726-304.414c-4.016-10.49-8.952-20.916-14.689-31.067
			c-40.566-71.769-121.481-129.722-204.964-98.341c-25.345,9.534-45.847,24.235-62.348,42.395
			c-16.828,18.519-29.496,40.635-38.841,64.587c-0.752,1.926-1.452,3.88-2.162,5.828c-7.412-2.056-14.916-3.77-22.485-5.214
			c-10.146-1.936-20.399-3.423-30.699-4.601c-4.363,17.62-9.474,35.071-15.303,52.282c-9.201,27.162-21.028,50.95-51.836,56.95
			c-46.146,8.996-94.95-0.921-141.267-3.51c-52.623-2.899-105.381-3.203-158.036-1.023c-25.834,1.091-51.803,2.317-77.501,5.179
			c-22.799,2.523-47.508,7.6-68.843-3.951c-11.077-6-20.553-14.553-28.46-24.436c-7.394-9.272-13.36-19.734-17.995-30.402
			c-6.612-15.337-12.37-32.207-16.494-49.52c-9.417,1.328-18.773,2.98-28.018,5.061c-4.254,0.958-8.481,2.012-12.68,3.176
			c-10.465-28.723-25.478-55.069-46.464-76.093c-15.514-15.543-34.27-28.193-56.898-36.707
			c-84.672-31.828-166.698,28.251-206.673,101.426c-5.013,9.177-9.403,18.548-13.015,27.982
			c-36.809,96.177-32.514,202.409-46.726,304.414c-2.796,20.141-6.339,40.149-10.429,60.051
			c11.279,12.68,18.234,29.379,22.185,46.112c5.932,24.913,6.307,51.123,1.058,76.173c-6.544,31.491-21.574,60.426-34.66,89.771
			c-13.123,29.376-24.641,60.563-23.415,92.702c1.228,32.136,17.861,65.503,47.408,78.112c11.725,4.977,24.743,6.546,36.024,12.407
			c7.396,3.851,14.041,10.565,16.699,18.2c29.686-3.374,59.267-14.008,83.193-29.277c44.85-28.56,82.646-67.549,114.207-113.184
			c39.649-57.293,69.464-125.041,91.119-195.697c58.136,19.242,121.53,16.051,168.886-22.39
			c24.37-19.801,42.601-46.212,66.528-66.56c72.017-61.247,180.012-60.928,251.554,0c23.891,20.348,42.124,46.76,66.526,66.56
			c47.352,38.452,110.758,41.635,168.905,22.376c21.645,70.672,51.397,138.427,91.068,195.711
			c31.593,45.634,69.388,84.623,114.207,113.184c23.949,15.272,53.541,25.885,83.229,29.25c2.664-7.624,9.3-14.326,16.69-18.173
			c11.279-5.861,24.297-7.43,36.022-12.407c29.55-12.609,46.181-45.975,47.408-78.112
			C1861.461,1822.292,1849.943,1791.106,1836.82,1761.729z M468.508,1929.819c-6.385,1.735-9.074-8.127-2.723-9.885
			c64.282-17.795,119.145-57.036,159.33-110.047c39.174-51.673,58.977-110.574,73.834-172.85c1.252-5.25,10.083-4.175,9.518,1.289
			C694.905,1769.893,596.98,1894.908,468.508,1929.819z M554.593,1779.469c6.707-1.698,13.082-4.448,19.986-5.215
			c2.821-0.312,4.214,3.196,3.06,5.33c-7.418,13.695-31.396,19.374-45.376,14.307c-5.023-1.822-6.599-10.908,0-11.863
			C539.779,1780.94,547.148,1781.352,554.593,1779.469z M554.123,1739.946c7.44-4.582,15.469-7.031,23.783-9.617
			c6.648-2.066,14.465-5.057,20.904-1.189c1.559,0.938,1.891,2.782,1.135,4.336c-3.228,6.658-11.71,8.485-18.31,10.38
			c-8.382,2.409-16.367,4.685-25.115,4.945C551.67,1748.945,550.232,1742.339,554.123,1739.946z M714.531,1593.744
			c-35.992-37.932-43.625-97.094-20.36-142.974c2.136-4.207,9.079-1.228,7.593,3.201c-15.893,47.386-7.693,93.084,21.8,132.803
			C727.525,1592.11,718.914,1598.361,714.531,1593.744z M697.75,1368.943h-30.972v30.969c0,28.772-23.408,52.183-52.18,52.183
			h-12.117c-28.775,0-52.183-23.411-52.183-52.183v-30.969h-30.967c-28.777,0-52.185-23.408-52.185-52.182v-12.119
			c0-28.775,23.408-52.183,52.185-52.183h30.967v-30.967c0-28.774,23.408-52.185,52.183-52.185h12.117
			c28.772,0,52.18,23.411,52.18,52.185v30.967h30.972c28.775,0,52.182,23.408,52.182,52.183v12.119
			C749.932,1345.535,726.525,1368.943,697.75,1368.943z M839.818,1575.477c-54.938,0-99.473-44.536-99.473-99.476
			c0-54.938,44.536-99.474,99.473-99.474c54.941,0,99.476,44.536,99.476,99.474C939.294,1530.941,894.758,1575.477,839.818,1575.477
			z M1131.408,1406.086h-62.399c-22.926,0-41.578-18.65-41.578-41.576c0-22.926,18.653-41.576,41.578-41.576h62.399
			c22.926,0,41.579,18.65,41.579,41.576C1172.987,1387.436,1154.334,1406.086,1131.408,1406.086z M1757.273,1313.679
			c0,28.029-22.806,50.831-50.833,50.831s-50.833-22.802-50.833-50.831c0-28.027,22.806-50.828,50.833-50.828
			S1757.273,1285.652,1757.273,1313.679z M1669.432,1762.261c10.66-3.569,20.495-7.077,31.893-6.704
			c3.747,0.124,4.76,4.752,1.835,6.775c-9.388,6.482-19.603,8.836-30.506,11.61
			C1665.032,1775.88,1662.085,1764.719,1669.432,1762.261z M1624.102,1444.305c-28.027,0-50.833-22.801-50.833-50.828
			c0-28.027,22.806-50.828,50.833-50.828c28.027,0,50.831,22.801,50.831,50.828
			C1674.932,1421.504,1652.129,1444.305,1624.102,1444.305z M1683.702,1805.123c5.732-1.964,11.954-1.705,17.934-2.417
			c6.073-0.721,12.051-1.408,18.08-2.015c3.016-0.302,4.739,4.134,2.504,6.046c-10.197,8.721-26.855,14.321-39.81,8.265
			C1677.882,1812.886,1679.719,1806.49,1683.702,1805.123z M1620.837,1180.512c28.027,0,50.828,22.804,50.828,50.831
			c0,28.026-22.801,50.828-50.828,50.828s-50.833-22.801-50.833-50.828C1570.004,1203.316,1592.811,1180.512,1620.837,1180.512z
			 M1374.957,1575.477c-54.938,0-99.473-44.536-99.473-99.476c0-54.938,44.536-99.474,99.473-99.474
			c54.94,0,99.476,44.536,99.476,99.474C1474.433,1530.941,1429.897,1575.477,1374.957,1575.477z M1536.66,1262.851
			c28.026,0,50.83,22.801,50.83,50.828c0,28.029-22.804,50.831-50.83,50.831c-28.027,0-50.831-22.802-50.831-50.831
			C1485.829,1285.652,1508.633,1262.851,1536.66,1262.851z M1495.785,1593.423c9.033-23.667,25.147-41.318,29.705-67.727
			c3.028-17.552,2.263-36-2.483-53.172c-3.281-11.875-9.123-20.682-9.693-32.93c-0.209-4.485,5.079-5.576,7.997-3.313
			c21.973,17.016,23.198,60.397,19.486,85.812c-3.683,25.199-17.247,62.134-41.571,73.978
			C1497.576,1596.875,1494.991,1595.508,1495.785,1593.423z M1751.517,1929.819c-128.478-34.911-226.397-159.922-239.958-291.493
			c-0.57-5.52,8.278-6.482,9.518-1.289c14.867,62.322,34.697,121.104,73.834,172.85c40.105,53.03,95.101,92.266,159.33,110.047
			C1760.601,1921.695,1757.89,1931.552,1751.517,1929.819z"/>
	</g>
</g>
</svg>
